<?xml version="1.0" encoding="utf-8"?>
<!-- Generator: Adobe Illustrator 26.4.1, SVG Export Plug-In . SVG Version: 6.00 Build 0)  -->
<svg version="1.1" id="Calque_1" xmlns="http://www.w3.org/2000/svg" xmlns:xlink="http://www.w3.org/1999/xlink" x="0px" y="0px"
	 viewBox="0 0 300 190" style="enable-background:new 0 0 300 190;" xml:space="preserve">
<style type="text/css">
	.st0{fill:#130722;}
</style>
<g>
	<g>
		<path class="st0" d="M80.4,82.8H64.1V63.6h19.2v16.2c0,0.8-0.3,1.5-0.9,2.1C81.9,82.5,81.2,82.8,80.4,82.8z"/>
		<path class="st0" d="M80.4,104.6H64.1V85.4h16.2c0.4,0,0.8,0.1,1.1,0.2c0.4,0.1,0.7,0.4,1,0.6c0.3,0.3,0.5,0.6,0.6,1
			c0.1,0.4,0.2,0.7,0.2,1.1v13.2c0,0.8-0.3,1.5-0.9,2.1C81.9,104.3,81.2,104.6,80.4,104.6z"/>
		<path class="st0" d="M83.3,126.4H64.1v-19.2h16.2c0.8,0,1.5,0.3,2.1,0.9c0.6,0.6,0.9,1.3,0.9,2.1V126.4z"/>
		<path class="st0" d="M105.1,82.8H88.9c-0.8,0-1.5-0.3-2.1-0.9c-0.6-0.6-0.9-1.3-0.9-2.1V63.6c2.5,0,5,0.5,7.3,1.5
			c2.3,1,4.4,2.4,6.2,4.2c1.8,1.8,3.2,3.9,4.2,6.2C104.6,77.8,105.1,80.3,105.1,82.8L105.1,82.8z"/>
		<path class="st0" d="M105.1,104.6H88.9c-0.4,0-0.8-0.1-1.1-0.2c-0.4-0.1-0.7-0.4-1-0.6c-0.3-0.3-0.5-0.6-0.6-1s-0.2-0.8-0.2-1.1
			V88.4c0-0.4,0.1-0.8,0.2-1.1s0.4-0.7,0.6-1c0.3-0.3,0.6-0.5,1-0.6c0.4-0.1,0.8-0.2,1.1-0.2h16.2V104.6z"/>
		<path class="st0" d="M85.9,126.4v-16.2c0-0.8,0.3-1.5,0.9-2.1c0.6-0.6,1.3-0.9,2.1-0.9h16.2c0,2.5-0.5,5-1.5,7.4
			c-1,2.3-2.4,4.4-4.2,6.2c-1.8,1.8-3.9,3.2-6.2,4.2C91,125.9,88.5,126.4,85.9,126.4L85.9,126.4z"/>
		<path class="st0" d="M126.9,63.6h-19.2v19.2h19.2V63.6z"/>
		<path class="st0" d="M126.9,85.4h-19.2v19.2h19.2V85.4z"/>
		<path class="st0" d="M107.7,126.4v-19.2h19.2c0,5.1-2,10-5.6,13.6C117.7,124.4,112.8,126.4,107.7,126.4L107.7,126.4z"/>
		<path class="st0" d="M129.5,82.8V63.6h19.2c0,5.1-2,10-5.6,13.6C139.5,80.8,134.6,82.8,129.5,82.8z"/>
		<path class="st0" d="M148.7,85.4h-19.2v19.2h19.2V85.4z"/>
		<path class="st0" d="M170.5,82.8h-19.2V63.6c5.1,0,10,2,13.6,5.6C168.5,72.8,170.5,77.7,170.5,82.8L170.5,82.8z"/>
		<path class="st0" d="M170.5,85.4h-19.2v19.2h19.2V85.4z"/>
		<path class="st0" d="M170.5,107.2h-19.2v19.2h19.2V107.2z"/>
		<path class="st0" d="M192.3,63.6h-19.2v19.2h19.2V63.6z"/>
		<path class="st0" d="M192.3,85.4h-19.2v19.2h19.2V85.4z"/>
		<path class="st0" d="M192.3,126.4c-5.1,0-10-2-13.6-5.6c-3.6-3.6-5.6-8.5-5.6-13.6h19.2V126.4z"/>
		<path class="st0" d="M211.1,82.8h-16.2c0-5.1,2-10,5.6-13.6c3.6-3.6,8.5-5.6,13.6-5.6l0,0v16.2c0,0.8-0.3,1.5-0.9,2.1
			C212.6,82.5,211.9,82.8,211.1,82.8L211.1,82.8z"/>
		<path class="st0" d="M214.1,104.6c-2.5,0-5-0.5-7.3-1.5c-2.3-1-4.4-2.4-6.2-4.2c-1.8-1.8-3.2-3.9-4.2-6.2c-1-2.3-1.5-4.8-1.5-7.3
			h16.2c0.4,0,0.8,0.1,1.1,0.2c0.4,0.1,0.7,0.4,1,0.6c0.3,0.3,0.5,0.6,0.6,1c0.1,0.4,0.2,0.7,0.2,1.1V104.6z"/>
		<path class="st0" d="M214.1,126.4h-19.2v-19.2h16.2c0.8,0,1.6,0.3,2.1,0.9c0.6,0.6,0.9,1.3,0.9,2.1V126.4z"/>
		<path class="st0" d="M235.9,82.8h-16.2c-0.8,0-1.5-0.3-2.1-0.9c-0.6-0.6-0.9-1.3-0.9-2.1V63.6h19.2V82.8z"/>
		<path class="st0" d="M216.7,85.4c2.5,0,5,0.5,7.3,1.5s4.4,2.4,6.2,4.2c1.8,1.8,3.2,3.9,4.2,6.2c1,2.3,1.5,4.8,1.5,7.3h-16.2
			c-0.8,0-1.5-0.3-2.1-0.9c-0.6-0.6-0.9-1.3-0.9-2.1V85.4z"/>
		<path class="st0" d="M216.7,126.4v-16.2c0-0.8,0.3-1.5,0.9-2.1c0.6-0.6,1.3-0.9,2.1-0.9h16.2c0,2.5-0.5,5-1.5,7.4
			s-2.4,4.4-4.2,6.2c-1.8,1.8-3.9,3.2-6.2,4.2C221.7,125.9,219.2,126.4,216.7,126.4L216.7,126.4z"/>
	</g>
</g>
</svg>
