<?xml version="1.0" encoding="utf-8"?>
<!-- Generator: Adobe Illustrator 26.4.1, SVG Export Plug-In . SVG Version: 6.00 Build 0)  -->
<svg version="1.1" id="Calque_1" xmlns="http://www.w3.org/2000/svg" xmlns:xlink="http://www.w3.org/1999/xlink" x="0px" y="0px"
	 viewBox="0 0 300 300" style="enable-background:new 0 0 300 300;" xml:space="preserve">
<style type="text/css">
	.st0{fill:#E1FF0B;}
	.st1{fill:#130722;}
</style>
<rect class="st0" width="300" height="300"/>
<g>
	<g>
		<path class="st1" d="M80.4,137.8H64.1v-19.2h19.2v16.2c0,0.8-0.3,1.5-0.9,2.1C81.9,137.5,81.2,137.8,80.4,137.8z"/>
		<path class="st1" d="M80.4,159.6H64.1v-19.2h16.2c0.4,0,0.8,0.1,1.1,0.2c0.4,0.2,0.7,0.4,1,0.6c0.3,0.3,0.5,0.6,0.6,1
			c0.1,0.4,0.2,0.7,0.2,1.1v13.2c0,0.8-0.3,1.5-0.9,2.1C81.9,159.3,81.2,159.6,80.4,159.6z"/>
		<path class="st1" d="M83.3,181.4H64.1v-19.2h16.2c0.8,0,1.5,0.3,2.1,0.9c0.6,0.6,0.9,1.3,0.9,2.1V181.4z"/>
		<path class="st1" d="M105.1,137.8H88.9c-0.8,0-1.5-0.3-2.1-0.9c-0.6-0.6-0.9-1.3-0.9-2.1v-16.2c2.5,0,5,0.5,7.3,1.5
			c2.3,1,4.4,2.4,6.2,4.2c1.8,1.8,3.2,3.9,4.2,6.2C104.6,132.8,105.1,135.3,105.1,137.8L105.1,137.8z"/>
		<path class="st1" d="M105.1,159.6H88.9c-0.4,0-0.8-0.1-1.1-0.2c-0.4-0.1-0.7-0.4-1-0.6c-0.3-0.3-0.5-0.6-0.6-1s-0.2-0.8-0.2-1.1
			v-13.2c0-0.4,0.1-0.8,0.2-1.1s0.4-0.7,0.6-1c0.3-0.3,0.6-0.5,1-0.6c0.4-0.1,0.8-0.2,1.1-0.2h16.2V159.6z"/>
		<path class="st1" d="M85.9,181.4v-16.2c0-0.8,0.3-1.6,0.9-2.1c0.6-0.6,1.3-0.9,2.1-0.9h16.2c0,2.5-0.5,5-1.5,7.4
			c-1,2.3-2.4,4.5-4.2,6.2c-1.8,1.8-3.9,3.2-6.2,4.2C91,180.9,88.5,181.4,85.9,181.4L85.9,181.4z"/>
		<path class="st1" d="M126.9,118.6h-19.2v19.2h19.2V118.6z"/>
		<path class="st1" d="M126.9,140.4h-19.2v19.2h19.2V140.4z"/>
		<path class="st1" d="M107.7,181.4v-19.2h19.2c0,5.1-2,10-5.6,13.6C117.7,179.4,112.8,181.4,107.7,181.4L107.7,181.4z"/>
		<path class="st1" d="M129.5,137.8v-19.2h19.2c0,5.1-2,10-5.6,13.6C139.5,135.8,134.6,137.8,129.5,137.8z"/>
		<path class="st1" d="M148.7,140.4h-19.2v19.2h19.2V140.4z"/>
		<path class="st1" d="M170.5,137.8h-19.2v-19.2c5.1,0,10,2,13.6,5.6C168.5,127.8,170.5,132.7,170.5,137.8L170.5,137.8z"/>
		<path class="st1" d="M170.5,140.4h-19.2v19.2h19.2V140.4z"/>
		<path class="st1" d="M170.5,162.2h-19.2v19.2h19.2V162.2z"/>
		<path class="st1" d="M192.3,118.6h-19.2v19.2h19.2V118.6z"/>
		<path class="st1" d="M192.3,140.4h-19.2v19.2h19.2V140.4z"/>
		<path class="st1" d="M192.3,181.4c-5.1,0-10-2-13.6-5.6c-3.6-3.6-5.6-8.5-5.6-13.6h19.2V181.4z"/>
		<path class="st1" d="M211.1,137.8h-16.2c0-5.1,2-10,5.6-13.6c3.6-3.6,8.5-5.6,13.6-5.6l0,0v16.2c0,0.8-0.3,1.5-0.9,2.1
			C212.6,137.5,211.9,137.8,211.1,137.8L211.1,137.8z"/>
		<path class="st1" d="M214.1,159.6c-2.5,0-5-0.5-7.3-1.5c-2.3-1-4.4-2.4-6.2-4.2c-1.8-1.8-3.2-3.9-4.2-6.2c-1-2.3-1.5-4.8-1.5-7.3
			h16.2c0.4,0,0.8,0.1,1.1,0.2c0.4,0.1,0.7,0.4,1,0.6c0.3,0.3,0.5,0.6,0.6,1c0.1,0.4,0.2,0.8,0.2,1.1V159.6z"/>
		<path class="st1" d="M214.1,181.4h-19.2v-19.2h16.2c0.8,0,1.6,0.3,2.1,0.9c0.6,0.6,0.9,1.3,0.9,2.1V181.4z"/>
		<path class="st1" d="M235.9,137.8h-16.2c-0.8,0-1.5-0.3-2.1-0.9c-0.6-0.6-0.9-1.3-0.9-2.1v-16.2h19.2V137.8z"/>
		<path class="st1" d="M216.7,140.4c2.5,0,5,0.5,7.3,1.5c2.3,1,4.4,2.4,6.2,4.2c1.8,1.8,3.2,3.9,4.2,6.2s1.5,4.8,1.5,7.3h-16.2
			c-0.8,0-1.5-0.3-2.1-0.9c-0.6-0.6-0.9-1.3-0.9-2.1V140.4z"/>
		<path class="st1" d="M216.7,181.4v-16.2c0-0.8,0.3-1.5,0.9-2.1c0.6-0.6,1.3-0.9,2.1-0.9h16.2c0,2.5-0.5,5-1.5,7.4
			c-1,2.3-2.4,4.5-4.2,6.2c-1.8,1.8-3.9,3.2-6.2,4.2C221.7,180.9,219.2,181.4,216.7,181.4L216.7,181.4z"/>
	</g>
</g>
</svg>
